PathFileType	4	(X/Y/Z)	14_coords_data.trc
DataRate	CameraRate	NumFrames	NumMarkers	Units	OrigDataRate	OrigDataStartFrame	OrigNumFrames
30.0	30.0	6	21	m	30.0	11	64
Frame#	Time	THUMB_TIP	THUMB_IP	THUMB_MCP	THUMB_CMC	INDEX_TIP	INDEX_DIP	INDEX_PIP	INDEX_MCP	MIDDLE_TIP	MIDDLE_DIP	MIDDLE_PIP	MIDDLE_MCP	RING_TIP	RING_DIP	RING_PIP	RING_MCP	PINKY_TIP	PINKY_DIP	PINKY_PIP	PINKY_MCP	WRIST
X1	Y1	Z1	X2	Y2	Z2	X3	Y3	Z3	X4	Y4	Z4	X5	Y5	Z5	X6	Y6	Z6	X7	Y7	Z7	X8	Y8	Z8	X9	Y9	Z9	X10	Y10	Z10	X11	Y11	Z11	X12	Y12	Z12	X13	Y13	Z13	X14	Y14	Z14	X15	Y15	Z15	X16	Y16	Z16	X17	Y17	Z17	X18	Y18	Z18	X19	Y19	Z19	X20	Y20	Z20	X21	Y21	Z21
10	0.3333333333333333	0.03238970184326172	0.011821800231933594	0.9664600219726562	0.02225119972229004	0.00052956598997116	0.98597900390625	0.002110810041427612	-0.002736010074615478	1.0095499877929688	-0.014843500137329102	0.018264400482177735	1.021780029296875	0.03287300109863281	-0.03361330032348633	0.9323319702148437	0.0125871000289917	-0.03226890182495117	0.9325579833984375	-0.00809276008605957	-0.028740999221801757	0.939708984375	-0.0238518009185791	-0.015868800163269043	0.9693740234375	0.001571099996566772	-0.002491909980773926	0.984760009765625	0.014791199684143067	-0.0026709001064300526	0.9703359985351563	0.010286499977111816	-0.0035579299926757815	0.9437919921875	-0.026556999206542968	0.004490009784698486	0.9573289794921875	0.007221300125122071	0.015058300018310548	0.9925130004882813	0.015239700317382813	0.016573999404907228	0.9778380126953125	0.015490099906921387	0.01970739936828613	0.9542059936523437	-0.021476200103759766	0.026529300689697267	0.9585239868164063	0.026963499069213866	0.04726300048828125	0.916719970703125	0.015882200241088867	0.04578409957885742	0.9324199829101563	0.005975749969482422	0.04359130096435547	0.9470999755859375	-0.007826690196990966	0.04079869842529297	0.9695390014648437	-0.04184299850463867	0.035669300079345705	1.03072998046875
11	0.36666666666666664	0.03274599838256836	0.011506400108337402	0.9662360229492187	0.02254010009765625	0.00023747299611568402	0.9865430297851563	0.002328010082244873	-0.003211679935455322	1.009989990234375	-0.014760499954223632	0.017589899063110353	1.0215499877929688	0.032712001800537106	-0.034782699584960934	0.930801025390625	0.012390899658203124	-0.033082698822021486	0.931823974609375	-0.007995480060577393	-0.02926259994506836	0.9398090209960938	-0.02360860061645508	-0.01617259979248047	0.9696710205078125	0.0020077600479125974	-0.0026799299716949465	0.9848870239257812	0.014989700317382813	-0.0029730401039123533	0.9707000122070313	0.010746100425720214	-0.00406289005279541	0.944072021484375	-0.02626449966430664	0.00400089979171753	0.957458984375	0.0077164101600646975	0.014765199661254882	0.9922930297851562	0.015391900062561035	0.01625670051574707	0.9782440185546875	0.015840299606323244	0.01928499984741211	0.9544959716796875	-0.021183300018310546	0.026076799392700196	0.958593017578125	0.027560600280761717	0.0467318000793457	0.9170419921875	0.016394100189208984	0.04529710006713867	0.9326480102539062	0.00634128999710083	0.04307929992675781	0.9473090209960937	-0.007628829956054688	0.040444000244140625	0.9699110107421876	-0.04172140121459961	0.03533340072631836	1.0305899658203126
12	0.4	0.033231399536132813	0.011068099975585938	0.9660549926757812	0.02276169967651367	-0.00017187300324440001	0.9868309936523437	0.002901259899139404	-0.0032650799751281737	1.0096500244140625	-0.014605899810791016	0.017340099334716797	1.0219299926757812	0.03238610076904297	-0.035619598388671875	0.9294749755859375	0.01208180046081543	-0.033634700775146485	0.9311669921875	-0.008065730094909669	-0.029599300384521486	0.9396209716796875	-0.023277099609375	-0.01645170021057129	0.9696630249023438	0.0016263099908828732	-0.003061170101165771	0.9850689697265625	0.01539490032196045	-0.0033764100074768063	0.9705850219726563	0.011105899810791015	-0.004371880054473877	0.9443510131835937	-0.02593040084838867	0.0036751000881195066	0.95735302734375	0.007134769916534424	0.014315799713134765	0.9929660034179687	0.01582989978790283	0.015668100357055664	0.978427978515625	0.016267900466918946	0.018834400177001952	0.9547559814453125	-0.02073390007019043	0.02574410057067871	0.9585770263671874	0.028567800521850584	0.046074199676513675	0.917469970703125	0.017191699981689453	0.044735599517822265	0.9330269775390625	0.007042439937591552	0.042607398986816404	0.9475460205078124	-0.007191669940948486	0.040071098327636716	0.9700999755859375	-0.041474601745605466	0.03500099945068359	1.0305699462890625
13	0.43333333333333335	0.033234901428222656	0.010446200370788574	0.966135009765625	0.022731000900268555	-0.0006605700254440301	0.986801025390625	0.001919819951057434	-0.003505199909210205	1.0107999877929688	-0.014461799621582032	0.017056299209594727	1.021780029296875	0.03185149955749512	-0.03600429916381836	0.9286849975585938	0.011684900283813476	-0.03380939865112305	0.930614990234375	-0.008311459541320801	-0.029689100265502928	0.939177978515625	-0.023257699966430664	-0.01663610076904297	0.9694249877929687	0.0017578599452972412	-0.0033671998977661127	0.985114013671875	0.015347999572753906	-0.0036943399906158437	0.9705599975585938	0.011022500038146973	-0.004578169822692871	0.9441290283203125	-0.025857799530029296	0.0036371700763702395	0.9572420043945312	0.007725830078125	0.013901900291442872	0.9930579833984375	0.01617679977416992	0.015137499809265136	0.9781510009765625	0.016390600204467774	0.018503499984741212	0.9546749877929688	-0.020391599655151367	0.025560699462890624	0.9581649780273438	0.02899799919128418	0.045746101379394534	0.9175579833984375	0.017634700775146485	0.04443370056152344	0.9331229858398438	0.007443079948425293	0.04235350036621094	0.947614013671875	-0.0067793397903442385	0.03973619842529297	0.9699639892578125	-0.04126340103149414	0.03489970016479492	1.030739990234375
14	0.4666666666666667	0.03350550079345703	0.010271200180053711	0.965708984375	0.022807199478149413	-0.0009077050089836121	0.98647900390625	0.002600970029830932	-0.0037993600368499752	1.0093800048828125	-0.01444320011138916	0.016894899368286132	1.0219299926757812	0.03161739921569824	-0.035835201263427735	0.9280239868164063	0.011376099586486816	-0.03361420059204102	0.9300479736328126	-0.008596320152282715	-0.02943269920349121	0.9386619873046875	-0.023257299423217772	-0.01649370002746582	0.9692780151367187	0.002145240068435669	-0.003706069946289062	0.9840430297851562	0.015522600173950196	-0.003915270090103149	0.9698599853515625	0.011077699661254882	-0.004528510093688965	0.9436619873046875	-0.0257593994140625	0.003740509986877441	0.9569749755859375	0.007515520095825195	0.013661800384521484	0.9924819946289063	0.016385299682617187	0.015005599975585938	0.9777750244140625	0.01665589904785156	0.018439599990844727	0.9544810180664063	-0.020309000015258788	0.02574329948425293	0.9581740112304687	0.02922960090637207	0.04587160110473633	0.9175349731445313	0.017907699584960936	0.04449860000610351	0.9330399780273437	0.007682539939880371	0.04238949966430664	0.9475139770507812	-0.006415309906005859	0.03965340042114258	0.969760009765625	-0.040893798828125	0.034756000518798826	1.030719970703125
15	0.5	0.0335796012878418	0.010262800216674804	0.9652949829101563	0.022763500213623045	-0.000990370988845825	0.98602197265625	0.00232898998260498	-0.0039486799240112305	1.0094000244140624	-0.014201899528503419	0.01686960029602051	1.0214400024414063	0.031069000244140624	-0.035660301208496094	0.9273070068359375	0.010948100090026856	-0.033277698516845707	0.929405029296875	-0.008990440368652344	-0.029042699813842773	0.9380650024414062	-0.02338279914855957	-0.016313600540161132	0.9686950073242188	0.0024221301078796377	-0.003527430057525634	0.9841480102539063	0.015444700241088866	-0.003862669944763183	0.9695999755859375	0.011028599739074708	-0.004295370101928711	0.9432630004882813	-0.025643999099731446	0.004060070037841797	0.9566090087890625	0.00818218994140625	0.013829999923706055	0.9925590209960937	0.016346500396728515	0.0150177001953125	0.9774860229492187	0.016699199676513673	0.018552600860595705	0.9541710205078126	-0.020232700347900392	0.026027999877929687	0.958135009765625	0.02922909927368164	0.046202999114990234	0.917239013671875	0.018002599716186524	0.04476459884643555	0.9326859741210938	0.007849810123443603	0.042594398498535156	0.9473140258789062	-0.006221310138702392	0.039832698822021485	0.9698309936523437	-0.04060260009765625	0.034737598419189455	1.0303599853515626
